<?xml version="1.0" encoding="UTF-8" standalone="no"?>
<!DOCTYPE svg PUBLIC "-//W3C//DTD SVG 1.1//EN"
 "http://www.w3.org/Graphics/SVG/1.1/DTD/svg11.dtd">
<!-- Generated by graphviz version 12.2.1 (20241206.2353)
 -->
<!-- Title: Authentication Pages: 1 -->
<svg width="2607pt" height="2093pt"
 viewBox="14.40 14.40 2592.57 2078.53" xmlns="http://www.w3.org/2000/svg" xmlns:xlink="http://www.w3.org/1999/xlink">
<g id="graph0" class="graph" transform="scale(1 1) rotate(0) translate(18.4 2074.53)">
<title>Authentication</title>
<polygon fill="white" stroke="none" points="-4,4 -4,-2060.13 2574.17,-2060.13 2574.17,4 -4,4"/>
<g id="clust1" class="cluster">
<title>cluster_legend</title>
<polygon fill="none" stroke="black" stroke-dasharray="5,2" points="11.34,-1307.57 11.34,-1530.57 312.65,-1530.57 312.65,-1307.57 11.34,-1307.57"/>
<text text-anchor="middle" x="162" y="-1513.27" font-family="Times,serif" font-size="14.00">Legend</text>
</g>
<!-- Authentication -->
<g id="node1" class="node">
<title>Authentication</title>
<ellipse fill="none" stroke="black" cx="162.17" cy="-1271.57" rx="65.68" ry="18"/>
<text text-anchor="middle" x="162.17" y="-1266.52" font-family="Times,serif" font-size="14.00">Authentication</text>
</g>
<!-- native -->
<g id="node2" class="node">
<title>native</title>
<ellipse fill="none" stroke="black" cx="533.17" cy="-1607.57" rx="45.25" ry="21.57"/>
<text text-anchor="middle" x="533.17" y="-1599.82" font-family="Times,serif" font-size="20.00">native</text>
</g>
<!-- Authentication&#45;&gt;native -->
<g id="edge1" class="edge">
<title>Authentication&#45;&gt;native</title>
<path fill="none" stroke="black" d="M217.09,-1281.75C234.39,-1286.59 253.04,-1293.59 268.42,-1303.57 383.07,-1377.97 476.5,-1516.16 514.2,-1577.22"/>
<polygon fill="black" stroke="black" points="510.99,-1578.67 519.18,-1585.38 516.96,-1575.02 510.99,-1578.67"/>
</g>
<!-- browser&#45;side -->
<g id="node12" class="node">
<title>browser&#45;side</title>
<ellipse fill="none" stroke="black" cx="533.17" cy="-1271.57" rx="83.44" ry="21.57"/>
<text text-anchor="middle" x="533.17" y="-1263.82" font-family="Times,serif" font-size="20.00">browser&#45;side</text>
</g>
<!-- Authentication&#45;&gt;browser&#45;side -->
<g id="edge2" class="edge">
<title>Authentication&#45;&gt;browser&#45;side</title>
<path fill="none" stroke="black" d="M228.29,-1271.57C286.47,-1271.57 372.42,-1271.57 438.08,-1271.57"/>
<polygon fill="black" stroke="black" points="437.75,-1275.07 447.75,-1271.57 437.75,-1268.07 437.75,-1275.07"/>
</g>
<!-- server&#45;side -->
<g id="node13" class="node">
<title>server&#45;side</title>
<ellipse fill="none" stroke="black" cx="533.17" cy="-479.57" rx="72.83" ry="21.57"/>
<text text-anchor="middle" x="533.17" y="-471.82" font-family="Times,serif" font-size="20.00">server&#45;side</text>
</g>
<!-- Authentication&#45;&gt;server&#45;side -->
<g id="edge3" class="edge">
<title>Authentication&#45;&gt;server&#45;side</title>
<path fill="none" stroke="black" d="M171.57,-1253.54C219.2,-1151.3 455.41,-644.3 517.3,-511.47"/>
<polygon fill="black" stroke="black" points="520.41,-513.09 521.46,-502.54 514.07,-510.13 520.41,-513.09"/>
</g>
<!-- Android -->
<g id="node56" class="node">
<title>Android</title>
<ellipse fill="none" stroke="black" cx="893.17" cy="-1851.57" rx="57.45" ry="21.57"/>
<text text-anchor="middle" x="893.17" y="-1843.82" font-family="Times,serif" font-size="20.00">Android</text>
</g>
<!-- native&#45;&gt;Android -->
<g id="edge46" class="edge">
<title>native&#45;&gt;Android</title>
<path fill="none" stroke="black" d="M560.2,-1625.31C622.88,-1668.03 782.32,-1776.7 855.02,-1826.25"/>
<polygon fill="black" stroke="black" points="852.79,-1828.96 863.02,-1831.7 856.73,-1823.18 852.79,-1828.96"/>
</g>
<!-- iOS -->
<g id="node57" class="node">
<title>iOS</title>
<ellipse fill="none" stroke="black" cx="893.17" cy="-1607.57" rx="33.06" ry="21.57"/>
<text text-anchor="middle" x="893.17" y="-1599.82" font-family="Times,serif" font-size="20.00">iOS</text>
</g>
<!-- native&#45;&gt;iOS -->
<g id="edge47" class="edge">
<title>native&#45;&gt;iOS</title>
<path fill="none" stroke="black" d="M578.78,-1607.57C647.89,-1607.57 779.96,-1607.57 848.49,-1607.57"/>
<polygon fill="black" stroke="black" points="848.2,-1611.07 858.2,-1607.57 848.2,-1604.07 848.2,-1611.07"/>
</g>
<!-- Auth0.Android -->
<g id="node3" class="node">
<title>Auth0.Android</title>
<g id="a_node3"><a xlink:href="https://github.com/auth0/Auth0.Android" xlink:title="Auth0.Android" target="_blank">
<ellipse fill="lightblue" stroke="black" cx="1405.17" cy="-2034.57" rx="95.64" ry="21.57"/>
<text text-anchor="middle" x="1405.17" y="-2026.82" font-family="Times,serif" font-size="20.00">Auth0.Android</text>
</a>
</g>
</g>
<!-- Guardian.Android -->
<g id="node4" class="node">
<title>Guardian.Android</title>
<g id="a_node4"><a xlink:href="https://github.com/auth0/Guardian.Android" xlink:title="Guardian.Android" target="_blank">
<ellipse fill="lightyellow" stroke="black" cx="1405.17" cy="-1973.57" rx="113.14" ry="21.57"/>
<text text-anchor="middle" x="1405.17" y="-1965.82" font-family="Times,serif" font-size="20.00">Guardian.Android</text>
</a>
</g>
</g>
<!-- auth0&#45;flutter -->
<g id="node5" class="node">
<title>auth0&#45;flutter</title>
<g id="a_node5"><a xlink:href="https://github.com/auth0/auth0-flutter" xlink:title="auth0&#45;flutter" target="_blank">
<ellipse fill="lightblue" stroke="black" cx="1405.17" cy="-1790.57" rx="80.79" ry="21.57"/>
<text text-anchor="middle" x="1405.17" y="-1782.82" font-family="Times,serif" font-size="20.00">auth0&#45;flutter</text>
</a>
</g>
</g>
<!-- Auth0.swift -->
<g id="node6" class="node">
<title>Auth0.swift</title>
<g id="a_node6"><a xlink:href="https://github.com/auth0/Auth0.swift" xlink:title="Auth0.swift" target="_blank">
<ellipse fill="lightblue" stroke="black" cx="1405.17" cy="-1668.57" rx="77.07" ry="21.57"/>
<text text-anchor="middle" x="1405.17" y="-1660.82" font-family="Times,serif" font-size="20.00">Auth0.swift</text>
</a>
</g>
</g>
<!-- SimpleKeychain -->
<g id="node7" class="node">
<title>SimpleKeychain</title>
<g id="a_node7"><a xlink:href="https://github.com/auth0/SimpleKeychain" xlink:title="SimpleKeychain" target="_blank">
<ellipse fill="lightgreen" stroke="black" cx="1405.17" cy="-1607.57" rx="104.65" ry="21.57"/>
<text text-anchor="middle" x="1405.17" y="-1599.82" font-family="Times,serif" font-size="20.00">SimpleKeychain</text>
</a>
</g>
</g>
<!-- JWTDecode.Android -->
<g id="node8" class="node">
<title>JWTDecode.Android</title>
<g id="a_node8"><a xlink:href="https://github.com/auth0/JWTDecode.Android" xlink:title="JWTDecode.Android" target="_blank">
<ellipse fill="lightgreen" stroke="black" cx="1405.17" cy="-1912.57" rx="131.17" ry="21.57"/>
<text text-anchor="middle" x="1405.17" y="-1904.82" font-family="Times,serif" font-size="20.00">JWTDecode.Android</text>
</a>
</g>
</g>
<!-- JWTDecode.swift -->
<g id="node9" class="node">
<title>JWTDecode.swift</title>
<g id="a_node9"><a xlink:href="https://github.com/auth0/JWTDecode.swift" xlink:title="JWTDecode.swift" target="_blank">
<ellipse fill="lightgreen" stroke="black" cx="1405.17" cy="-1546.57" rx="112.61" ry="21.57"/>
<text text-anchor="middle" x="1405.17" y="-1538.82" font-family="Times,serif" font-size="20.00">JWTDecode.swift</text>
</a>
</g>
</g>
<!-- Guardian.swift -->
<g id="node10" class="node">
<title>Guardian.swift</title>
<g id="a_node10"><a xlink:href="https://github.com/auth0/https://github.com/auth0/Guardian.swift" xlink:title="Guardian.swift" target="_blank">
<ellipse fill="lightyellow" stroke="black" cx="1405.17" cy="-1485.57" rx="94.58" ry="21.57"/>
<text text-anchor="middle" x="1405.17" y="-1477.82" font-family="Times,serif" font-size="20.00">Guardian.swift</text>
</a>
</g>
</g>
<!-- react&#45;native&#45;auth0 -->
<g id="node11" class="node">
<title>react&#45;native&#45;auth0</title>
<g id="a_node11"><a xlink:href="https://github.com/auth0/react-native-auth0" xlink:title="react&#45;native&#45;auth0" target="_blank">
<ellipse fill="lightblue" stroke="black" cx="1405.17" cy="-1729.57" rx="113.14" ry="21.57"/>
<text text-anchor="middle" x="1405.17" y="-1721.82" font-family="Times,serif" font-size="20.00">react&#45;native&#45;auth0</text>
</a>
</g>
</g>
<!-- browser&#45;side&#45;&gt;auth0&#45;flutter -->
<g id="edge20" class="edge">
<title>browser&#45;side&#45;&gt;auth0&#45;flutter</title>
<path fill="none" stroke="black" stroke-dasharray="1,5" d="M543.2,-1293.2C570.81,-1356.56 660.37,-1543.29 794.35,-1638.57 952.63,-1751.12 1185.63,-1780.64 1312.92,-1788.18"/>
<polygon fill="black" stroke="black" points="1312.46,-1791.66 1322.63,-1788.72 1312.84,-1784.67 1312.46,-1791.66"/>
</g>
<!-- auth0&#45;spa&#45;js -->
<g id="node43" class="node">
<title>auth0&#45;spa&#45;js</title>
<g id="a_node43"><a xlink:href="https://github.com/auth0/auth0-spa-js" xlink:title="auth0&#45;spa&#45;js" target="_blank">
<ellipse fill="lightblue" stroke="black" cx="893.17" cy="-1302.57" rx="79.2" ry="21.57"/>
<text text-anchor="middle" x="893.17" y="-1294.82" font-family="Times,serif" font-size="20.00">auth0&#45;spa&#45;js</text>
</a>
</g>
</g>
<!-- browser&#45;side&#45;&gt;auth0&#45;spa&#45;js -->
<g id="edge18" class="edge">
<title>browser&#45;side&#45;&gt;auth0&#45;spa&#45;js</title>
<path fill="none" stroke="black" d="M612.73,-1278.37C669.87,-1283.32 747.2,-1290.01 806.02,-1295.11"/>
<polygon fill="black" stroke="black" points="805.38,-1298.56 815.65,-1295.94 805.99,-1291.59 805.38,-1298.56"/>
</g>
<!-- jwt&#45;decode -->
<g id="node49" class="node">
<title>jwt&#45;decode</title>
<g id="a_node49"><a xlink:href="https://github.com/auth0/jwt-decode" xlink:title="jwt&#45;decode" target="_blank">
<ellipse fill="lightgreen" stroke="black" cx="893.17" cy="-1241.57" rx="73.36" ry="21.57"/>
<text text-anchor="middle" x="893.17" y="-1233.82" font-family="Times,serif" font-size="20.00">jwt&#45;decode</text>
</a>
</g>
</g>
<!-- browser&#45;side&#45;&gt;jwt&#45;decode -->
<g id="edge19" class="edge">
<title>browser&#45;side&#45;&gt;jwt&#45;decode</title>
<path fill="none" stroke="black" d="M613.17,-1264.95C671.89,-1260.03 751.73,-1253.34 810.96,-1248.37"/>
<polygon fill="black" stroke="black" points="810.96,-1251.88 820.63,-1247.56 810.38,-1244.91 810.96,-1251.88"/>
</g>
<!-- idtoken&#45;verifier -->
<g id="node55" class="node">
<title>idtoken&#45;verifier</title>
<g id="a_node55"><a xlink:href="https://github.com/auth0/idtoken-verifier" xlink:title="idtoken&#45;verifier" target="_blank">
<ellipse fill="lightgreen" stroke="black" cx="893.17" cy="-1180.57" rx="98.82" ry="21.57"/>
<text text-anchor="middle" x="893.17" y="-1172.82" font-family="Times,serif" font-size="20.00">idtoken&#45;verifier</text>
</a>
</g>
</g>
<!-- browser&#45;side&#45;&gt;idtoken&#45;verifier -->
<g id="edge21" class="edge">
<title>browser&#45;side&#45;&gt;idtoken&#45;verifier</title>
<path fill="none" stroke="black" d="M593.69,-1256.44C654.8,-1240.9 750.12,-1216.67 816.54,-1199.79"/>
<polygon fill="black" stroke="black" points="817.06,-1203.27 825.89,-1197.41 815.33,-1196.49 817.06,-1203.27"/>
</g>
<!-- node.js -->
<g id="node14" class="node">
<title>node.js</title>
<ellipse fill="none" stroke="black" cx="893.17" cy="-905.57" rx="51.09" ry="21.57"/>
<text text-anchor="middle" x="893.17" y="-897.82" font-family="Times,serif" font-size="20.00">node.js</text>
</g>
<!-- server&#45;side&#45;&gt;node.js -->
<g id="edge4" class="edge">
<title>server&#45;side&#45;&gt;node.js</title>
<path fill="none" stroke="black" d="M551.92,-500.69C610.88,-570.85 800.26,-796.2 867.88,-876.67"/>
<polygon fill="black" stroke="black" points="865.06,-878.75 874.17,-884.15 870.42,-874.25 865.06,-878.75"/>
</g>
<!-- java -->
<g id="node15" class="node">
<title>java</title>
<ellipse fill="none" stroke="black" cx="893.17" cy="-600.57" rx="34.65" ry="21.57"/>
<text text-anchor="middle" x="893.17" y="-592.82" font-family="Times,serif" font-size="20.00">java</text>
</g>
<!-- server&#45;side&#45;&gt;java -->
<g id="edge5" class="edge">
<title>server&#45;side&#45;&gt;java</title>
<path fill="none" stroke="black" d="M582.45,-495.89C653.53,-519.91 785.09,-564.38 851.53,-586.83"/>
<polygon fill="black" stroke="black" points="850.35,-590.13 860.95,-590.01 852.59,-583.5 850.35,-590.13"/>
</g>
<!-- python -->
<g id="node21" class="node">
<title>python</title>
<ellipse fill="none" stroke="black" cx="893.17" cy="-509.57" rx="49.5" ry="21.57"/>
<text text-anchor="middle" x="893.17" y="-501.82" font-family="Times,serif" font-size="20.00">python</text>
</g>
<!-- server&#45;side&#45;&gt;python -->
<g id="edge12" class="edge">
<title>server&#45;side&#45;&gt;python</title>
<path fill="none" stroke="black" d="M603.62,-485.39C670.23,-490.97 769.74,-499.31 832.77,-504.59"/>
<polygon fill="black" stroke="black" points="832.33,-508.06 842.59,-505.41 832.92,-501.09 832.33,-508.06"/>
</g>
<!-- php -->
<g id="node23" class="node">
<title>php</title>
<ellipse fill="none" stroke="black" cx="893.17" cy="-448.57" rx="32" ry="21.57"/>
<text text-anchor="middle" x="893.17" y="-440.82" font-family="Times,serif" font-size="20.00">php</text>
</g>
<!-- server&#45;side&#45;&gt;php -->
<g id="edge14" class="edge">
<title>server&#45;side&#45;&gt;php</title>
<path fill="none" stroke="black" d="M603.62,-473.55C676.63,-467.23 789.15,-457.49 849.85,-452.23"/>
<polygon fill="black" stroke="black" points="850.11,-455.72 859.77,-451.37 849.5,-448.75 850.11,-455.72"/>
</g>
<!-- C# -->
<g id="node28" class="node">
<title>C#</title>
<ellipse fill="none" stroke="black" cx="893.17" cy="-357.57" rx="27.75" ry="21.57"/>
<text text-anchor="middle" x="893.17" y="-349.82" font-family="Times,serif" font-size="20.00">C#</text>
</g>
<!-- server&#45;side&#45;&gt;C# -->
<g id="edge15" class="edge">
<title>server&#45;side&#45;&gt;C#</title>
<path fill="none" stroke="black" d="M582.08,-463.24C654.87,-438.43 791.69,-391.81 856.45,-369.74"/>
<polygon fill="black" stroke="black" points="857.54,-373.06 865.88,-366.53 855.28,-366.44 857.54,-373.06"/>
</g>
<!-- go -->
<g id="node32" class="node">
<title>go</title>
<ellipse fill="none" stroke="black" cx="893.17" cy="-204.57" rx="27" ry="21.57"/>
<text text-anchor="middle" x="893.17" y="-196.82" font-family="Times,serif" font-size="20.00">go</text>
</g>
<!-- server&#45;side&#45;&gt;go -->
<g id="edge16" class="edge">
<title>server&#45;side&#45;&gt;go</title>
<path fill="none" stroke="black" d="M560.49,-459.35C626.19,-408.88 796.92,-277.73 864.26,-226"/>
<polygon fill="black" stroke="black" points="866.06,-229.03 871.86,-220.17 861.8,-223.48 866.06,-229.03"/>
</g>
<!-- ruby -->
<g id="node35" class="node">
<title>ruby</title>
<ellipse fill="none" stroke="black" cx="893.17" cy="-82.57" rx="36.77" ry="21.57"/>
<text text-anchor="middle" x="893.17" y="-74.82" font-family="Times,serif" font-size="20.00">ruby</text>
</g>
<!-- server&#45;side&#45;&gt;ruby -->
<g id="edge17" class="edge">
<title>server&#45;side&#45;&gt;ruby</title>
<path fill="none" stroke="black" d="M550.72,-458.43C590.76,-407.69 696.75,-275.62 794.35,-173.57 816.55,-150.35 843.36,-125.62 863.3,-107.81"/>
<polygon fill="black" stroke="black" points="865.37,-110.64 870.52,-101.39 860.72,-105.41 865.37,-110.64"/>
</g>
<!-- jsonwebtoken -->
<g id="node39" class="node">
<title>jsonwebtoken</title>
<g id="a_node39"><a xlink:href="https://github.com/auth0/node-jsonwebtoken" xlink:title="jsonwebtoken" target="_blank">
<ellipse fill="lightgreen" stroke="black" cx="1405.17" cy="-1119.57" rx="88.21" ry="21.57"/>
<text text-anchor="middle" x="1405.17" y="-1111.82" font-family="Times,serif" font-size="20.00">jsonwebtoken</text>
</a>
</g>
</g>
<!-- node.js&#45;&gt;jsonwebtoken -->
<g id="edge26" class="edge">
<title>node.js&#45;&gt;jsonwebtoken</title>
<path fill="none" stroke="black" d="M919.23,-924.25C971.33,-962.09 1096.4,-1047.71 1215.13,-1089.57 1245,-1100.1 1278.82,-1106.94 1309.52,-1111.39"/>
<polygon fill="black" stroke="black" points="1308.79,-1114.82 1319.18,-1112.72 1309.75,-1107.89 1308.79,-1114.82"/>
</g>
<!-- express&#45;jwt&#45;authz -->
<g id="node40" class="node">
<title>express&#45;jwt&#45;authz</title>
<g id="a_node40"><a xlink:href="https://github.com/auth0/express-jwt-authz" xlink:title="express&#45;jwt&#45;authz" target="_blank">
<ellipse fill="violet" stroke="black" cx="1405.17" cy="-1058.57" rx="110.49" ry="21.57"/>
<text text-anchor="middle" x="1405.17" y="-1050.82" font-family="Times,serif" font-size="20.00">express&#45;jwt&#45;authz</text>
</a>
</g>
</g>
<!-- node.js&#45;&gt;express&#45;jwt&#45;authz -->
<g id="edge27" class="edge">
<title>node.js&#45;&gt;express&#45;jwt&#45;authz</title>
<path fill="none" stroke="black" d="M928.52,-921.48C986.41,-947.65 1107.63,-999.78 1215.13,-1028.57 1241.79,-1035.71 1271.05,-1041.37 1298.42,-1045.77"/>
<polygon fill="black" stroke="black" points="1297.69,-1049.2 1308.11,-1047.28 1298.77,-1042.28 1297.69,-1049.2"/>
</g>
<!-- node&#45;oauth2&#45;jwt&#45;bearer -->
<g id="node41" class="node">
<title>node&#45;oauth2&#45;jwt&#45;bearer</title>
<g id="a_node41"><a xlink:href="https://github.com/auth0/node-oauth2-jwt-bearer/" xlink:title="node&#45;oauth2&#45;jwt&#45;bearer" target="_blank">
<ellipse fill="violet" stroke="black" cx="1405.17" cy="-997.57" rx="143.37" ry="21.57"/>
<text text-anchor="middle" x="1405.17" y="-989.82" font-family="Times,serif" font-size="20.00">node&#45;oauth2&#45;jwt&#45;bearer</text>
</a>
</g>
</g>
<!-- node.js&#45;&gt;node&#45;oauth2&#45;jwt&#45;bearer -->
<g id="edge28" class="edge">
<title>node.js&#45;&gt;node&#45;oauth2&#45;jwt&#45;bearer</title>
<path fill="none" stroke="black" d="M939.79,-914.88C1001.94,-927.45 1116.76,-950.26 1215.13,-967.57 1239.93,-971.93 1266.62,-976.34 1291.9,-980.38"/>
<polygon fill="black" stroke="black" points="1291.09,-983.8 1301.52,-981.92 1292.2,-976.89 1291.09,-983.8"/>
</g>
<!-- express&#45;openid&#45;connect -->
<g id="node42" class="node">
<title>express&#45;openid&#45;connect</title>
<g id="a_node42"><a xlink:href="https://github.com/auth0/express-openid-connect" xlink:title="express&#45;openid&#45;connect" target="_blank">
<ellipse fill="lightblue" stroke="black" cx="1405.17" cy="-936.57" rx="143.9" ry="21.57"/>
<text text-anchor="middle" x="1405.17" y="-928.82" font-family="Times,serif" font-size="20.00">express&#45;openid&#45;connect</text>
</a>
</g>
</g>
<!-- node.js&#45;&gt;express&#45;openid&#45;connect -->
<g id="edge29" class="edge">
<title>node.js&#45;&gt;express&#45;openid&#45;connect</title>
<path fill="none" stroke="black" d="M944,-908.6C1016.42,-913 1153.68,-921.34 1259.52,-927.77"/>
<polygon fill="black" stroke="black" points="1259.25,-931.26 1269.44,-928.38 1259.67,-924.28 1259.25,-931.26"/>
</g>
<!-- nextjs&#45;auth0 -->
<g id="node46" class="node">
<title>nextjs&#45;auth0</title>
<g id="a_node46"><a xlink:href="https://github.com/auth0/nextjs-auth0/" xlink:title="nextjs&#45;auth0" target="_blank">
<ellipse fill="lightblue" stroke="black" cx="1405.17" cy="-875.57" rx="79.73" ry="21.57"/>
<text text-anchor="middle" x="1405.17" y="-867.82" font-family="Times,serif" font-size="20.00">nextjs&#45;auth0</text>
</a>
</g>
</g>
<!-- node.js&#45;&gt;nextjs&#45;auth0 -->
<g id="edge30" class="edge">
<title>node.js&#45;&gt;nextjs&#45;auth0</title>
<path fill="none" stroke="black" d="M944,-902.64C1030.09,-897.57 1207.77,-887.12 1315.41,-880.79"/>
<polygon fill="black" stroke="black" points="1315.6,-884.28 1325.38,-880.2 1315.19,-877.29 1315.6,-884.28"/>
</g>
<!-- node&#45;auth0 -->
<g id="node53" class="node">
<title>node&#45;auth0</title>
<ellipse fill="lightblue" stroke="black" cx="1405.17" cy="-814.57" rx="73.89" ry="21.57"/>
<text text-anchor="middle" x="1405.17" y="-806.82" font-family="Times,serif" font-size="20.00">node&#45;auth0</text>
</g>
<!-- node.js&#45;&gt;node&#45;auth0 -->
<g id="edge24" class="edge">
<title>node.js&#45;&gt;node&#45;auth0</title>
<path fill="none" stroke="black" d="M940.06,-896.39C1002.29,-884.05 1116.93,-861.69 1215.13,-844.57 1252.2,-838.1 1293.47,-831.49 1327.96,-826.12"/>
<polygon fill="black" stroke="black" points="1328.07,-829.65 1337.41,-824.65 1326.99,-822.73 1328.07,-829.65"/>
</g>
<!-- passport&#45;auth0 -->
<g id="node54" class="node">
<title>passport&#45;auth0</title>
<g id="a_node54"><a xlink:href="https://github.com/auth0/passport-auth0" xlink:title="passport&#45;auth0" target="_blank">
<ellipse fill="lightblue" stroke="black" cx="1405.17" cy="-753.57" rx="92.98" ry="21.57"/>
<text text-anchor="middle" x="1405.17" y="-745.82" font-family="Times,serif" font-size="20.00">passport&#45;auth0</text>
</a>
</g>
</g>
<!-- node.js&#45;&gt;passport&#45;auth0 -->
<g id="edge25" class="edge">
<title>node.js&#45;&gt;passport&#45;auth0</title>
<path fill="none" stroke="black" d="M928.54,-889.8C986.45,-863.85 1107.7,-812.18 1215.13,-783.57 1245.59,-775.45 1279.43,-769.24 1309.96,-764.62"/>
<polygon fill="black" stroke="black" points="1310.16,-768.13 1319.55,-763.21 1309.15,-761.2 1310.16,-768.13"/>
</g>
<!-- java&#45;jwt -->
<g id="node18" class="node">
<title>java&#45;jwt</title>
<g id="a_node18"><a xlink:href="https://github.com/auth0/java-jwt" xlink:title="java&#45;jwt" target="_blank">
<ellipse fill="lightgreen" stroke="black" cx="1405.17" cy="-692.57" rx="56.92" ry="21.57"/>
<text text-anchor="middle" x="1405.17" y="-684.82" font-family="Times,serif" font-size="20.00">java&#45;jwt</text>
</a>
</g>
</g>
<!-- java&#45;&gt;java&#45;jwt -->
<g id="edge6" class="edge">
<title>java&#45;&gt;java&#45;jwt</title>
<path fill="none" stroke="black" d="M926.45,-607.17C984.23,-618.92 1109.21,-643.94 1215.13,-662.57 1256.8,-669.9 1303.79,-677.36 1340.49,-683"/>
<polygon fill="black" stroke="black" points="1339.62,-686.41 1350.03,-684.47 1340.68,-679.49 1339.62,-686.41"/>
</g>
<!-- jwks&#45;rsa&#45;java -->
<g id="node19" class="node">
<title>jwks&#45;rsa&#45;java</title>
<g id="a_node19"><a xlink:href="https://github.com/auth0/jwks-rsa-java" xlink:title="jwks&#45;rsa&#45;java" target="_blank">
<ellipse fill="lightgreen" stroke="black" cx="1405.17" cy="-631.57" rx="86.62" ry="21.57"/>
<text text-anchor="middle" x="1405.17" y="-623.82" font-family="Times,serif" font-size="20.00">jwks&#45;rsa&#45;java</text>
</a>
</g>
</g>
<!-- java&#45;&gt;jwks&#45;rsa&#45;java -->
<g id="edge7" class="edge">
<title>java&#45;&gt;jwks&#45;rsa&#45;java</title>
<path fill="none" stroke="black" d="M928.02,-602.62C1004.67,-607.28 1193.76,-618.78 1309.27,-625.8"/>
<polygon fill="black" stroke="black" points="1308.85,-629.28 1319.04,-626.39 1309.27,-622.29 1308.85,-629.28"/>
</g>
<!-- auth0&#45;spring&#45;security&#45;api -->
<g id="node20" class="node">
<title>auth0&#45;spring&#45;security&#45;api</title>
<g id="a_node20"><a xlink:href="https://github.com/auth0/auth0-spring-security-api" xlink:title="auth0&#45;spring&#45;security&#45;api" target="_blank">
<ellipse fill="violet" stroke="black" cx="1405.17" cy="-570.57" rx="151.85" ry="21.57"/>
<text text-anchor="middle" x="1405.17" y="-562.82" font-family="Times,serif" font-size="20.00">auth0&#45;spring&#45;security&#45;api</text>
</a>
</g>
</g>
<!-- java&#45;&gt;auth0&#45;spring&#45;security&#45;api -->
<g id="edge11" class="edge">
<title>java&#45;&gt;auth0&#45;spring&#45;security&#45;api</title>
<path fill="none" stroke="black" d="M928.02,-598.58C993.15,-594.74 1139.47,-586.14 1252.84,-579.47"/>
<polygon fill="black" stroke="black" points="1252.76,-582.98 1262.54,-578.9 1252.35,-575.99 1252.76,-582.98"/>
</g>
<!-- auth0&#45;java&#45;mvc&#45;common -->
<g id="node16" class="node">
<title>auth0&#45;java&#45;mvc&#45;common</title>
<g id="a_node16"><a xlink:href="https://github.com/auth0/auth0-java-mvc-common" xlink:title="auth0&#45;java&#45;mvc&#45;common" target="_blank">
<ellipse fill="lightblue" stroke="black" cx="2352.17" cy="-662.57" rx="153.44" ry="21.57"/>
<text text-anchor="middle" x="2352.17" y="-654.82" font-family="Times,serif" font-size="20.00">auth0&#45;java&#45;mvc&#45;common</text>
</a>
</g>
</g>
<!-- auth0&#45;java -->
<g id="node17" class="node">
<title>auth0&#45;java</title>
<g id="a_node17"><a xlink:href="https://github.com/auth0/auth0-java" xlink:title="auth0&#45;java" target="_blank">
<ellipse fill="lightblue" stroke="black" cx="1905.17" cy="-687.57" rx="70.18" ry="21.57"/>
<text text-anchor="middle" x="1905.17" y="-679.82" font-family="Times,serif" font-size="20.00">auth0&#45;java</text>
</a>
</g>
</g>
<!-- auth0&#45;java&#45;&gt;auth0&#45;java&#45;mvc&#45;common -->
<g id="edge9" class="edge">
<title>auth0&#45;java&#45;&gt;auth0&#45;java&#45;mvc&#45;common</title>
<path fill="none" stroke="black" d="M1974.72,-683.72C2033.98,-680.39 2121.8,-675.45 2197.72,-671.19"/>
<polygon fill="black" stroke="black" points="2197.53,-674.7 2207.32,-670.65 2197.14,-667.71 2197.53,-674.7"/>
</g>
<!-- java&#45;jwt&#45;&gt;auth0&#45;java -->
<g id="edge8" class="edge">
<title>java&#45;jwt&#45;&gt;auth0&#45;java</title>
<path fill="none" stroke="black" d="M1462.33,-692C1550.5,-691.12 1721.81,-689.4 1823.27,-688.38"/>
<polygon fill="black" stroke="black" points="1823.2,-691.88 1833.16,-688.28 1823.13,-684.88 1823.2,-691.88"/>
</g>
<!-- jwks&#45;rsa&#45;java&#45;&gt;auth0&#45;java&#45;mvc&#45;common -->
<g id="edge10" class="edge">
<title>jwks&#45;rsa&#45;java&#45;&gt;auth0&#45;java&#45;mvc&#45;common</title>
<path fill="none" stroke="black" d="M1491.28,-634.36C1649.01,-639.53 1989.04,-650.69 2191.05,-657.31"/>
<polygon fill="black" stroke="black" points="2190.73,-660.81 2200.84,-657.64 2190.96,-653.81 2190.73,-660.81"/>
</g>
<!-- auth0&#45;python -->
<g id="node22" class="node">
<title>auth0&#45;python</title>
<g id="a_node22"><a xlink:href="https://github.com/auth0/auth0-python" xlink:title="auth0&#45;python" target="_blank">
<ellipse fill="lightblue" stroke="black" cx="1405.17" cy="-509.57" rx="85.03" ry="21.57"/>
<text text-anchor="middle" x="1405.17" y="-501.82" font-family="Times,serif" font-size="20.00">auth0&#45;python</text>
</a>
</g>
</g>
<!-- python&#45;&gt;auth0&#45;python -->
<g id="edge13" class="edge">
<title>python&#45;&gt;auth0&#45;python</title>
<path fill="none" stroke="black" d="M943.07,-509.57C1026.98,-509.57 1199.84,-509.57 1308.44,-509.57"/>
<polygon fill="black" stroke="black" points="1308.2,-513.07 1318.2,-509.57 1308.2,-506.07 1308.2,-513.07"/>
</g>
<!-- auth0&#45;php -->
<g id="node24" class="node">
<title>auth0&#45;php</title>
<g id="a_node24"><a xlink:href="https://github.com/auth0/auth0-PHP" xlink:title="auth0&#45;php" target="_blank">
<ellipse fill="lightblue" stroke="black" cx="1405.17" cy="-448.57" rx="67.53" ry="21.57"/>
<text text-anchor="middle" x="1405.17" y="-440.82" font-family="Times,serif" font-size="20.00">auth0&#45;php</text>
</a>
</g>
</g>
<!-- php&#45;&gt;auth0&#45;php -->
<g id="edge39" class="edge">
<title>php&#45;&gt;auth0&#45;php</title>
<path fill="none" stroke="black" d="M925.3,-448.57C1003.81,-448.57 1211.74,-448.57 1326.08,-448.57"/>
<polygon fill="black" stroke="black" points="1326.01,-452.07 1336.01,-448.57 1326.01,-445.07 1326.01,-452.07"/>
</g>
<!-- laravel&#45;auth0 -->
<g id="node25" class="node">
<title>laravel&#45;auth0</title>
<g id="a_node25"><a xlink:href="https://github.com/auth0/laravel-auth0" xlink:title="laravel&#45;auth0" target="_blank">
<ellipse fill="lightblue" stroke="black" cx="1905.17" cy="-509.57" rx="85.03" ry="21.57"/>
<text text-anchor="middle" x="1905.17" y="-501.82" font-family="Times,serif" font-size="20.00">laravel&#45;auth0</text>
</a>
</g>
</g>
<!-- auth0&#45;php&#45;&gt;laravel&#45;auth0 -->
<g id="edge40" class="edge">
<title>auth0&#45;php&#45;&gt;laravel&#45;auth0</title>
<path fill="none" stroke="black" d="M1468.73,-456.23C1556.65,-467 1717.11,-486.65 1816.77,-498.86"/>
<polygon fill="black" stroke="black" points="1816.16,-502.31 1826.51,-500.05 1817.01,-495.36 1816.16,-502.31"/>
</g>
<!-- symfony -->
<g id="node26" class="node">
<title>symfony</title>
<g id="a_node26"><a xlink:href="https://github.com/auth0/symfony" xlink:title="symfony" target="_blank">
<ellipse fill="lightblue" stroke="black" cx="1905.17" cy="-448.57" rx="60.1" ry="21.57"/>
<text text-anchor="middle" x="1905.17" y="-440.82" font-family="Times,serif" font-size="20.00">symfony</text>
</a>
</g>
</g>
<!-- auth0&#45;php&#45;&gt;symfony -->
<g id="edge41" class="edge">
<title>auth0&#45;php&#45;&gt;symfony</title>
<path fill="none" stroke="black" d="M1473.07,-448.57C1567,-448.57 1737.21,-448.57 1833.26,-448.57"/>
<polygon fill="black" stroke="black" points="1833.08,-452.07 1843.08,-448.57 1833.08,-445.07 1833.08,-452.07"/>
</g>
<!-- wordpress -->
<g id="node27" class="node">
<title>wordpress</title>
<g id="a_node27"><a xlink:href="https://github.com/auth0/wordpress" xlink:title="wordpress" target="_blank">
<ellipse fill="lightblue" stroke="black" cx="1905.17" cy="-387.57" rx="68.59" ry="21.57"/>
<text text-anchor="middle" x="1905.17" y="-379.82" font-family="Times,serif" font-size="20.00">wordpress</text>
</a>
</g>
</g>
<!-- auth0&#45;php&#45;&gt;wordpress -->
<g id="edge42" class="edge">
<title>auth0&#45;php&#45;&gt;wordpress</title>
<path fill="none" stroke="black" d="M1468.73,-440.9C1560.45,-429.67 1731.14,-408.76 1829.36,-396.73"/>
<polygon fill="black" stroke="black" points="1829.67,-400.22 1839.17,-395.53 1828.82,-393.27 1829.67,-400.22"/>
</g>
<!-- auth0&#45;oidc&#45;client&#45;net -->
<g id="node29" class="node">
<title>auth0&#45;oidc&#45;client&#45;net</title>
<g id="a_node29"><a xlink:href="https://github.com/auth0/auth0-oidc-client-net" xlink:title="auth0&#45;oidc&#45;client&#45;net" target="_blank">
<ellipse fill="lightblue" stroke="black" cx="1405.17" cy="-387.57" rx="127.99" ry="21.57"/>
<text text-anchor="middle" x="1405.17" y="-379.82" font-family="Times,serif" font-size="20.00">auth0&#45;oidc&#45;client&#45;net</text>
</a>
</g>
</g>
<!-- C#&#45;&gt;auth0&#45;oidc&#45;client&#45;net -->
<g id="edge43" class="edge">
<title>C#&#45;&gt;auth0&#45;oidc&#45;client&#45;net</title>
<path fill="none" stroke="black" d="M921.23,-359.16C985.86,-362.96 1152.75,-372.78 1272.22,-379.81"/>
<polygon fill="black" stroke="black" points="1271.93,-383.29 1282.12,-380.39 1272.34,-376.31 1271.93,-383.29"/>
</g>
<!-- auth0.net -->
<g id="node30" class="node">
<title>auth0.net</title>
<g id="a_node30"><a xlink:href="https://github.com/auth0/auth0.net" xlink:title="auth0.net" target="_blank">
<ellipse fill="lightblue" stroke="black" cx="1405.17" cy="-326.57" rx="62.76" ry="21.57"/>
<text text-anchor="middle" x="1405.17" y="-318.82" font-family="Times,serif" font-size="20.00">auth0.net</text>
</a>
</g>
</g>
<!-- C#&#45;&gt;auth0.net -->
<g id="edge44" class="edge">
<title>C#&#45;&gt;auth0.net</title>
<path fill="none" stroke="black" d="M921.23,-355.92C997.58,-351.28 1216.6,-337.97 1331.63,-330.98"/>
<polygon fill="black" stroke="black" points="1331.82,-334.47 1341.59,-330.37 1331.4,-327.48 1331.82,-334.47"/>
</g>
<!-- auth0&#45;aspnetcore&#45;authentication -->
<g id="node31" class="node">
<title>auth0&#45;aspnetcore&#45;authentication</title>
<g id="a_node31"><a xlink:href="https://github.com/auth0/auth0-aspnetcore-authentication" xlink:title="auth0&#45;aspnetcore&#45;authentication" target="_blank">
<ellipse fill="lightblue" stroke="black" cx="1405.17" cy="-265.57" rx="190.03" ry="21.57"/>
<text text-anchor="middle" x="1405.17" y="-257.82" font-family="Times,serif" font-size="20.00">auth0&#45;aspnetcore&#45;authentication</text>
</a>
</g>
</g>
<!-- C#&#45;&gt;auth0&#45;aspnetcore&#45;authentication -->
<g id="edge45" class="edge">
<title>C#&#45;&gt;auth0&#45;aspnetcore&#45;authentication</title>
<path fill="none" stroke="black" d="M920.32,-352.21C974.97,-341.08 1105.3,-314.88 1215.13,-295.57 1235.59,-291.97 1257.33,-288.34 1278.51,-284.91"/>
<polygon fill="black" stroke="black" points="1279.05,-288.36 1288.36,-283.32 1277.93,-281.45 1279.05,-288.36"/>
</g>
<!-- go&#45;jwt&#45;middleware -->
<g id="node33" class="node">
<title>go&#45;jwt&#45;middleware</title>
<g id="a_node33"><a xlink:href="https://github.com/auth0/go-jwt-middleware" xlink:title="go&#45;jwt&#45;middleware" target="_blank">
<ellipse fill="violet" stroke="black" cx="1405.17" cy="-204.57" rx="118.44" ry="21.57"/>
<text text-anchor="middle" x="1405.17" y="-196.82" font-family="Times,serif" font-size="20.00">go&#45;jwt&#45;middleware</text>
</a>
</g>
</g>
<!-- go&#45;&gt;go&#45;jwt&#45;middleware -->
<g id="edge35" class="edge">
<title>go&#45;&gt;go&#45;jwt&#45;middleware</title>
<path fill="none" stroke="black" d="M920.51,-204.57C985.13,-204.57 1154.93,-204.57 1275.03,-204.57"/>
<polygon fill="black" stroke="black" points="1274.97,-208.07 1284.97,-204.57 1274.97,-201.07 1274.97,-208.07"/>
</g>
<!-- go&#45;auth0 -->
<g id="node34" class="node">
<title>go&#45;auth0</title>
<g id="a_node34"><a xlink:href="https://github.com/auth0/go-auth0" xlink:title="go&#45;auth0" target="_blank">
<ellipse fill="lightblue" stroke="black" cx="1405.17" cy="-143.57" rx="60.63" ry="21.57"/>
<text text-anchor="middle" x="1405.17" y="-135.82" font-family="Times,serif" font-size="20.00">go&#45;auth0</text>
</a>
</g>
</g>
<!-- go&#45;&gt;go&#45;auth0 -->
<g id="edge36" class="edge">
<title>go&#45;&gt;go&#45;auth0</title>
<path fill="none" stroke="black" d="M920.16,-201.46C996.5,-192.33 1221.83,-165.38 1336.09,-151.71"/>
<polygon fill="black" stroke="black" points="1336.44,-155.19 1345.96,-150.53 1335.61,-148.24 1336.44,-155.19"/>
</g>
<!-- omniauth&#45;auth0 -->
<g id="node36" class="node">
<title>omniauth&#45;auth0</title>
<g id="a_node36"><a xlink:href="https://github.com/auth0/omniauth-auth0" xlink:title="omniauth&#45;auth0" target="_blank">
<ellipse fill="lightblue" stroke="black" cx="1405.17" cy="-82.57" rx="99.35" ry="21.57"/>
<text text-anchor="middle" x="1405.17" y="-74.82" font-family="Times,serif" font-size="20.00">omniauth&#45;auth0</text>
</a>
</g>
</g>
<!-- ruby&#45;&gt;omniauth&#45;auth0 -->
<g id="edge37" class="edge">
<title>ruby&#45;&gt;omniauth&#45;auth0</title>
<path fill="none" stroke="black" d="M930.44,-82.57C1005.21,-82.57 1179.1,-82.57 1294.1,-82.57"/>
<polygon fill="black" stroke="black" points="1293.88,-86.07 1303.88,-82.57 1293.88,-79.07 1293.88,-86.07"/>
</g>
<!-- ruby&#45;auth0 -->
<g id="node37" class="node">
<title>ruby&#45;auth0</title>
<g id="a_node37"><a xlink:href="https://github.com/auth0/ruby-auth0" xlink:title="ruby&#45;auth0" target="_blank">
<ellipse fill="lightblue" stroke="black" cx="1405.17" cy="-21.57" rx="72.3" ry="21.57"/>
<text text-anchor="middle" x="1405.17" y="-13.82" font-family="Times,serif" font-size="20.00">ruby&#45;auth0</text>
</a>
</g>
</g>
<!-- ruby&#45;&gt;ruby&#45;auth0 -->
<g id="edge38" class="edge">
<title>ruby&#45;&gt;ruby&#45;auth0</title>
<path fill="none" stroke="black" d="M929.62,-78.33C1011.3,-68.56 1214.29,-44.28 1326.51,-30.86"/>
<polygon fill="black" stroke="black" points="1326.72,-34.35 1336.24,-29.69 1325.89,-27.4 1326.72,-34.35"/>
</g>
<!-- node&#45;jwks&#45;rsa -->
<g id="node38" class="node">
<title>node&#45;jwks&#45;rsa</title>
<g id="a_node38"><a xlink:href="https://github.com/auth0/node-jwks-rsa" xlink:title="node&#45;jwks&#45;rsa" target="_blank">
<ellipse fill="lightgreen" stroke="black" cx="1905.17" cy="-1119.57" rx="90.33" ry="21.57"/>
<text text-anchor="middle" x="1905.17" y="-1111.82" font-family="Times,serif" font-size="20.00">node&#45;jwks&#45;rsa</text>
</a>
</g>
</g>
<!-- jsonwebtoken&#45;&gt;node&#45;jwks&#45;rsa -->
<g id="edge31" class="edge">
<title>jsonwebtoken&#45;&gt;node&#45;jwks&#45;rsa</title>
<path fill="none" stroke="black" d="M1493.77,-1119.57C1580.22,-1119.57 1712.27,-1119.57 1803.11,-1119.57"/>
<polygon fill="black" stroke="black" points="1803.02,-1123.07 1813.02,-1119.57 1803.02,-1116.07 1803.02,-1123.07"/>
</g>
<!-- auth0&#45;react -->
<g id="node44" class="node">
<title>auth0&#45;react</title>
<g id="a_node44"><a xlink:href="https://github.com/auth0/auth0-react" xlink:title="auth0&#45;react" target="_blank">
<ellipse fill="lightblue" stroke="black" cx="1405.17" cy="-1363.57" rx="74.42" ry="21.57"/>
<text text-anchor="middle" x="1405.17" y="-1355.82" font-family="Times,serif" font-size="20.00">auth0&#45;react</text>
</a>
</g>
</g>
<!-- auth0&#45;spa&#45;js&#45;&gt;auth0&#45;react -->
<g id="edge32" class="edge">
<title>auth0&#45;spa&#45;js&#45;&gt;auth0&#45;react</title>
<path fill="none" stroke="black" d="M966.43,-1311.21C1061.05,-1322.53 1226.41,-1342.31 1324.55,-1354.04"/>
<polygon fill="black" stroke="black" points="1324.04,-1357.51 1334.38,-1355.22 1324.87,-1350.56 1324.04,-1357.51"/>
</g>
<!-- auth0&#45;vue -->
<g id="node45" class="node">
<title>auth0&#45;vue</title>
<g id="a_node45"><a xlink:href="https://github.com/auth0/auth0-vue" xlink:title="auth0&#45;vue" target="_blank">
<ellipse fill="lightblue" stroke="black" cx="1405.17" cy="-1302.57" rx="67" ry="21.57"/>
<text text-anchor="middle" x="1405.17" y="-1294.82" font-family="Times,serif" font-size="20.00">auth0&#45;vue</text>
</a>
</g>
</g>
<!-- auth0&#45;spa&#45;js&#45;&gt;auth0&#45;vue -->
<g id="edge33" class="edge">
<title>auth0&#45;spa&#45;js&#45;&gt;auth0&#45;vue</title>
<path fill="none" stroke="black" d="M972.74,-1302.57C1068.86,-1302.57 1230.58,-1302.57 1326.36,-1302.57"/>
<polygon fill="black" stroke="black" points="1326.19,-1306.07 1336.19,-1302.57 1326.19,-1299.07 1326.19,-1306.07"/>
</g>
<!-- auth0&#45;angular -->
<g id="node47" class="node">
<title>auth0&#45;angular</title>
<g id="a_node47"><a xlink:href="https://github.com/auth0/auth0-angular" xlink:title="auth0&#45;angular" target="_blank">
<ellipse fill="lightblue" stroke="black" cx="1405.17" cy="-1241.57" rx="88.74" ry="21.57"/>
<text text-anchor="middle" x="1405.17" y="-1233.82" font-family="Times,serif" font-size="20.00">auth0&#45;angular</text>
</a>
</g>
</g>
<!-- auth0&#45;spa&#45;js&#45;&gt;auth0&#45;angular -->
<g id="edge34" class="edge">
<title>auth0&#45;spa&#45;js&#45;&gt;auth0&#45;angular</title>
<path fill="none" stroke="black" d="M966.43,-1293.92C1057.58,-1283.02 1214.36,-1264.27 1313.47,-1252.41"/>
<polygon fill="black" stroke="black" points="1313.65,-1255.92 1323.16,-1251.26 1312.82,-1248.97 1313.65,-1255.92"/>
</g>
<!-- auth0.js -->
<g id="node48" class="node">
<title>auth0.js</title>
<g id="a_node48"><a xlink:href="https://github.com/auth0/auth0.js" xlink:title="auth0.js" target="_blank">
<ellipse fill="lightblue" stroke="black" cx="1405.17" cy="-1180.57" rx="54.8" ry="21.57"/>
<text text-anchor="middle" x="1405.17" y="-1172.82" font-family="Times,serif" font-size="20.00">auth0.js</text>
</a>
</g>
</g>
<!-- lock -->
<g id="node50" class="node">
<title>lock</title>
<g id="a_node50"><a xlink:href="https://github.com/auth0/lock" xlink:title="lock" target="_blank">
<ellipse fill="gold" stroke="black" cx="1905.17" cy="-1180.57" rx="35.18" ry="21.57"/>
<text text-anchor="middle" x="1905.17" y="-1172.82" font-family="Times,serif" font-size="20.00">lock</text>
</a>
</g>
</g>
<!-- auth0.js&#45;&gt;lock -->
<g id="edge23" class="edge">
<title>auth0.js&#45;&gt;lock</title>
<path fill="none" stroke="black" d="M1460.41,-1180.57C1559.06,-1180.57 1766.16,-1180.57 1858.29,-1180.57"/>
<polygon fill="black" stroke="black" points="1858.21,-1184.07 1868.21,-1180.57 1858.21,-1177.07 1858.21,-1184.07"/>
</g>
<!-- Lock.Android -->
<g id="node51" class="node">
<title>Lock.Android</title>
<g id="a_node51"><a xlink:href="https://github.com/auth0/Lock.Android" xlink:title="Lock.Android" target="_blank">
<ellipse fill="gold" stroke="black" cx="1405.17" cy="-1851.57" rx="89.8" ry="21.57"/>
<text text-anchor="middle" x="1405.17" y="-1843.82" font-family="Times,serif" font-size="20.00">Lock.Android</text>
</a>
</g>
</g>
<!-- Lock.swift -->
<g id="node52" class="node">
<title>Lock.swift</title>
<g id="a_node52"><a xlink:href="https://github.com/auth0/Lock.swift" xlink:title="Lock.swift" target="_blank">
<ellipse fill="gold" stroke="black" cx="1405.17" cy="-1424.57" rx="71.24" ry="21.57"/>
<text text-anchor="middle" x="1405.17" y="-1416.82" font-family="Times,serif" font-size="20.00">Lock.swift</text>
</a>
</g>
</g>
<!-- idtoken&#45;verifier&#45;&gt;auth0.js -->
<g id="edge22" class="edge">
<title>idtoken&#45;verifier&#45;&gt;auth0.js</title>
<path fill="none" stroke="black" d="M992.2,-1180.57C1094.1,-1180.57 1250.74,-1180.57 1338.6,-1180.57"/>
<polygon fill="black" stroke="black" points="1338.49,-1184.07 1348.49,-1180.57 1338.49,-1177.07 1338.49,-1184.07"/>
</g>
<!-- Android&#45;&gt;Auth0.Android -->
<g id="edge49" class="edge">
<title>Android&#45;&gt;Auth0.Android</title>
<path fill="none" stroke="black" d="M924.83,-1869.9C980.58,-1902.35 1103.12,-1969.78 1215.13,-2004.57 1243.97,-2013.52 1276.16,-2019.9 1305.69,-2024.4"/>
<polygon fill="black" stroke="black" points="1304.96,-2027.83 1315.37,-2025.82 1305.98,-2020.91 1304.96,-2027.83"/>
</g>
<!-- Android&#45;&gt;Guardian.Android -->
<g id="edge52" class="edge">
<title>Android&#45;&gt;Guardian.Android</title>
<path fill="none" stroke="black" d="M937.34,-1865.76C998.57,-1885.47 1114.4,-1921.22 1215.13,-1943.57 1242.5,-1949.64 1272.37,-1954.97 1300.11,-1959.38"/>
<polygon fill="black" stroke="black" points="1299.52,-1962.83 1309.94,-1960.92 1300.61,-1955.92 1299.52,-1962.83"/>
</g>
<!-- Android&#45;&gt;auth0&#45;flutter -->
<g id="edge48" class="edge">
<title>Android&#45;&gt;auth0&#45;flutter</title>
<path fill="none" stroke="black" d="M948.26,-1845.1C1037.06,-1834.48 1214.37,-1813.27 1319.79,-1800.66"/>
<polygon fill="black" stroke="black" points="1320,-1804.16 1329.52,-1799.5 1319.17,-1797.21 1320,-1804.16"/>
</g>
<!-- Android&#45;&gt;JWTDecode.Android -->
<g id="edge50" class="edge">
<title>Android&#45;&gt;JWTDecode.Android</title>
<path fill="none" stroke="black" d="M948.26,-1858.04C1028.36,-1867.62 1180.48,-1885.81 1286.88,-1898.54"/>
<polygon fill="black" stroke="black" points="1286.16,-1901.98 1296.5,-1899.69 1286.99,-1895.03 1286.16,-1901.98"/>
</g>
<!-- Android&#45;&gt;react&#45;native&#45;auth0 -->
<g id="edge51" class="edge">
<title>Android&#45;&gt;react&#45;native&#45;auth0</title>
<path fill="none" stroke="black" d="M937.34,-1837.37C998.57,-1817.66 1114.4,-1781.91 1215.13,-1759.57 1242.5,-1753.5 1272.37,-1748.17 1300.11,-1743.75"/>
<polygon fill="black" stroke="black" points="1300.61,-1747.22 1309.94,-1742.21 1299.52,-1740.3 1300.61,-1747.22"/>
</g>
<!-- Android&#45;&gt;Lock.Android -->
<g id="edge53" class="edge">
<title>Android&#45;&gt;Lock.Android</title>
<path fill="none" stroke="black" d="M950.69,-1851.57C1035.77,-1851.57 1197.99,-1851.57 1303.57,-1851.57"/>
<polygon fill="black" stroke="black" points="1303.36,-1855.07 1313.36,-1851.57 1303.36,-1848.07 1303.36,-1855.07"/>
</g>
<!-- iOS&#45;&gt;auth0&#45;flutter -->
<g id="edge54" class="edge">
<title>iOS&#45;&gt;auth0&#45;flutter</title>
<path fill="none" stroke="black" d="M918.15,-1621.99C970.24,-1652.62 1098.41,-1724.32 1215.13,-1760.57 1247.78,-1770.7 1284.71,-1777.54 1317.21,-1782.09"/>
<polygon fill="black" stroke="black" points="1316.64,-1785.54 1327.01,-1783.4 1317.57,-1778.6 1316.64,-1785.54"/>
</g>
<!-- iOS&#45;&gt;Auth0.swift -->
<g id="edge55" class="edge">
<title>iOS&#45;&gt;Auth0.swift</title>
<path fill="none" stroke="black" d="M926.07,-1611.38C1004.37,-1620.75 1207.96,-1645.1 1322.62,-1658.81"/>
<polygon fill="black" stroke="black" points="1321.92,-1662.25 1332.27,-1659.97 1322.75,-1655.3 1321.92,-1662.25"/>
</g>
<!-- iOS&#45;&gt;SimpleKeychain -->
<g id="edge56" class="edge">
<title>iOS&#45;&gt;SimpleKeychain</title>
<path fill="none" stroke="black" d="M926.46,-1607.57C997.76,-1607.57 1171.62,-1607.57 1288.73,-1607.57"/>
<polygon fill="black" stroke="black" points="1288.72,-1611.07 1298.72,-1607.57 1288.72,-1604.07 1288.72,-1611.07"/>
</g>
<!-- iOS&#45;&gt;JWTDecode.swift -->
<g id="edge57" class="edge">
<title>iOS&#45;&gt;JWTDecode.swift</title>
<path fill="none" stroke="black" d="M926.07,-1603.75C998.9,-1595.04 1180.14,-1573.36 1297.38,-1559.34"/>
<polygon fill="black" stroke="black" points="1297.5,-1562.85 1307.01,-1558.19 1296.67,-1555.9 1297.5,-1562.85"/>
</g>
<!-- iOS&#45;&gt;Guardian.swift -->
<g id="edge59" class="edge">
<title>iOS&#45;&gt;Guardian.swift</title>
<path fill="none" stroke="black" d="M923.07,-1598C978.95,-1579.78 1105.91,-1539.79 1215.13,-1515.57 1246.19,-1508.68 1280.46,-1502.75 1311.19,-1498.02"/>
<polygon fill="black" stroke="black" points="1311.48,-1501.51 1320.84,-1496.56 1310.43,-1494.59 1311.48,-1501.51"/>
</g>
<!-- iOS&#45;&gt;react&#45;native&#45;auth0 -->
<g id="edge58" class="edge">
<title>iOS&#45;&gt;react&#45;native&#45;auth0</title>
<path fill="none" stroke="black" d="M923.07,-1617.14C978.95,-1635.35 1105.91,-1675.34 1215.13,-1699.57 1242.5,-1705.64 1272.37,-1710.97 1300.11,-1715.38"/>
<polygon fill="black" stroke="black" points="1299.52,-1718.83 1309.94,-1716.92 1300.61,-1711.92 1299.52,-1718.83"/>
</g>
<!-- iOS&#45;&gt;Lock.swift -->
<g id="edge60" class="edge">
<title>iOS&#45;&gt;Lock.swift</title>
<path fill="none" stroke="black" d="M918.15,-1593.15C970.24,-1562.52 1098.41,-1490.82 1215.13,-1454.57 1250.34,-1443.63 1290.54,-1436.54 1324.79,-1432.01"/>
<polygon fill="black" stroke="black" points="1325.18,-1435.49 1334.66,-1430.77 1324.3,-1428.55 1325.18,-1435.49"/>
</g>
<!-- Utility &#160;&#160;&#160;&#160;&#160;&#160;&#160;&#160;&#160;&#160;&#160;&#160;&#160;&#160;&#160;&#160; -->
<g id="node58" class="node">
<title>Utility &#160;&#160;&#160;&#160;&#160;&#160;&#160;&#160;&#160;&#160;&#160;&#160;&#160;&#160;&#160;&#160;</title>
<polygon fill="lightgreen" stroke="black" points="239.92,-1343.57 84.42,-1343.57 84.42,-1307.57 239.92,-1307.57 239.92,-1343.57"/>
<text text-anchor="middle" x="162.17" y="-1317.82" font-family="Times,serif" font-size="20.00">Utility &#160;&#160;&#160;&#160;&#160;&#160;&#160;&#160;&#160;&#160;&#160;&#160;&#160;&#160;&#160;&#160;</text>
</g>
<!-- Relying Party (RP) &#160;&#160;&#160;&#160;&#160; -->
<g id="node59" class="node">
<title>Relying Party (RP) &#160;&#160;&#160;&#160;&#160;</title>
<polygon fill="lightblue" stroke="black" points="262.42,-1397.57 61.92,-1397.57 61.92,-1361.57 262.42,-1361.57 262.42,-1397.57"/>
<text text-anchor="middle" x="162.17" y="-1371.82" font-family="Times,serif" font-size="20.00">Relying Party (RP) &#160;&#160;&#160;&#160;&#160;</text>
</g>
<!-- Resource Server (RS) &#160;&#160;&#160; -->
<g id="node60" class="node">
<title>Resource Server (RS) &#160;&#160;&#160;</title>
<polygon fill="violet" stroke="black" points="268.42,-1451.57 55.92,-1451.57 55.92,-1415.57 268.42,-1415.57 268.42,-1451.57"/>
<text text-anchor="middle" x="162.17" y="-1425.82" font-family="Times,serif" font-size="20.00">Resource Server (RS) &#160;&#160;&#160;</text>
</g>
<!-- Guardian -->
<g id="node61" class="node">
<title>Guardian</title>
<polygon fill="lightyellow" stroke="black" points="206.92,-1505.57 117.42,-1505.57 117.42,-1469.57 206.92,-1469.57 206.92,-1505.57"/>
<text text-anchor="middle" x="162.17" y="-1479.82" font-family="Times,serif" font-size="20.00">Guardian</text>
</g>
</g>
</svg>
